<?xml version="1.0" encoding="utf-8" ?>
<svg baseProfile="tiny" height="100%" version="1.2" width="100%" xmlns="http://www.w3.org/2000/svg" xmlns:ev="http://www.w3.org/2001/xml-events" xmlns:xlink="http://www.w3.org/1999/xlink"><defs /><path d="M 21,200 L 26,200 Z" fill="black" /><path d="M 17,199 Z" fill="black" /><path d="M 31,196 Z" fill="black" /><path d="M 33,195 Z" fill="black" /><path d="M 10,195 Z" fill="black" /><path d="M 36,193 L 35,194 Z" fill="black" /><path d="M 6,191 Z" fill="black" /><path d="M 43,189 Z" fill="black" /><path d="M 4,188 Z" fill="black" /><path d="M 3,186 Z" fill="black" /><path d="M 45,185 Z" fill="black" /><path d="M 42,185 L 42,186 L 41,187 L 41,188 L 38,191 L 41,188 L 41,187 L 42,186 Z" fill="black" /><path d="M 100,182 Z" fill="black" /><path d="M 46,182 L 46,183 Z" fill="black" /><path d="M 1,179 Z" fill="black" /><path d="M 0,176 L 0,177 Z" fill="black" /><path d="M 40,167 Z" fill="black" /><path d="M 192,165 Z" fill="black" /><path d="M 37,163 Z" fill="black" /><path d="M 144,159 Z" fill="black" /><path d="M 195,158 Z" fill="black" /><path d="M 87,156 Z" fill="black" /><path d="M 19,152 Z" fill="black" /><path d="M 13,149 Z" fill="black" /><path d="M 83,147 Z" fill="black" /><path d="M 9,147 Z" fill="black" /><path d="M 200,146 Z" fill="black" /><path d="M 151,142 Z" fill="black" /><path d="M 203,139 Z" fill="black" /><path d="M 128,139 Z" fill="black" /><path d="M 205,134 Z" fill="black" /><path d="M 156,130 Z" fill="black" /><path d="M 47,128 Z" fill="black" /><path d="M 74,127 Z" fill="black" /><path d="M 158,125 Z" fill="black" /><path d="M 213,115 Z" fill="black" /><path d="M 117,115 Z" fill="black" /><path d="M 216,108 Z" fill="black" /><path d="M 218,105 Z" fill="black" /><path d="M 112,104 Z" fill="black" /><path d="M 219,101 Z" fill="black" /><path d="M 168,101 Z" fill="black" /><path d="M 110,99 Z" fill="black" /><path d="M 109,97 Z" fill="black" /><path d="M 221,96 Z" fill="black" /><path d="M 106,92 Z" fill="black" /><path d="M 224,89 Z" fill="black" /><path d="M 100,86 Z" fill="black" /><path d="M 47,81 Z" fill="black" /><path d="M 229,77 Z" fill="black" /><path d="M 47,71 Z" fill="black" /><path d="M 47,68 Z" fill="black" /><path d="M 234,65 Z" fill="black" /><path d="M 184,62 Z" fill="black" /><path d="M 236,60 Z" fill="black" /><path d="M 239,53 Z" fill="black" /><path d="M 47,51 L 47,59 Z" fill="black" /><path d="M 189,50 Z" fill="black" /><path d="M 50,47 L 48,49 L 50,47 L 51,47 Z" fill="black" /><path d="M 132,46 L 135,46 Z" fill="black" /><path d="M 124,46 L 126,46 Z" fill="black" /><path d="M 121,46 L 122,46 Z" fill="black" /><path d="M 116,46 L 118,46 Z" fill="black" /><path d="M 112,46 L 113,46 Z" fill="black" /><path d="M 62,46 L 110,46 Z" fill="black" /><path d="M 60,46 Z" fill="black" /><path d="M 55,46 L 54,47 L 53,47 L 54,47 L 55,46 L 58,46 Z" fill="black" /><path d="M 0,46 L 0,149 Z" fill="black" /><path d="M 138,45 L 139,45 Z" fill="black" /><path d="M 141,44 Z" fill="black" /><path d="M 244,43 Z" fill="black" /><path d="M 244,41 Z" fill="black" /><path d="M 194,38 Z" fill="black" /><path d="M 149,37 L 144,42 Z" fill="black" /><path d="M 2,37 L 2,39 L 1,40 L 1,44 L 1,40 L 2,39 Z" fill="black" /><path d="M 247,34 Z" fill="black" /><path d="M 151,34 L 151,35 Z" fill="black" /><path d="M 196,33 Z" fill="black" /><path d="M 152,32 Z" fill="black" /><path d="M 153,29 L 153,30 Z" fill="black" /><path d="M 154,26 L 154,27 Z" fill="black" /><path d="M 8,25 L 6,27 L 6,28 L 5,29 L 5,30 L 4,31 L 4,32 L 3,33 L 3,35 L 3,33 L 4,32 L 4,31 L 5,30 L 5,29 L 6,28 L 6,27 Z" fill="black" /><path d="M 154,22 L 154,24 Z" fill="black" /><path d="M 249,19 Z" fill="black" /><path d="M 246,18 L 246,19 Z" fill="black" /><path d="M 248,15 L 249,16 Z" fill="black" /><path d="M 245,15 Z" fill="black" /><path d="M 152,15 L 153,16 L 153,18 L 154,19 L 154,20 L 154,19 L 153,18 L 153,16 Z" fill="black" /><path d="M 204,14 Z" fill="black" /><path d="M 247,13 Z" fill="black" /><path d="M 244,13 Z" fill="black" /><path d="M 151,13 Z" fill="black" /><path d="M 20,11 L 10,21 L 10,22 L 9,23 L 10,22 L 10,21 Z" fill="black" /><path d="M 245,10 Z" fill="black" /><path d="M 23,9 L 22,10 Z" fill="black" /><path d="M 240,8 L 242,10 Z" fill="black" /><path d="M 26,7 L 25,8 Z" fill="black" /><path d="M 145,6 L 149,10 Z" fill="black" /><path d="M 28,6 Z" fill="black" /><path d="M 240,5 Z" fill="black" /><path d="M 235,5 Z" fill="black" /><path d="M 142,4 L 143,4 Z" fill="black" /><path d="M 31,4 L 30,5 Z" fill="black" /><path d="M 237,3 Z" fill="black" /><path d="M 215,3 Z" fill="black" /><path d="M 140,3 Z" fill="black" /><path d="M 43,3 L 42,4 L 39,4 L 38,5 L 36,5 L 35,6 L 33,6 L 32,7 L 31,7 L 30,8 L 28,8 L 26,10 L 25,10 L 23,12 L 22,12 L 12,22 L 12,23 L 10,25 L 10,26 L 9,27 L 9,28 L 7,30 L 7,31 L 6,32 L 6,34 L 5,35 L 5,37 L 4,38 L 4,41 L 3,42 L 3,114 L 4,115 L 3,116 L 3,118 L 4,119 L 3,120 L 4,121 L 4,122 L 3,123 L 4,124 L 4,161 L 4,148 L 7,145 L 9,145 L 10,144 L 11,145 L 11,146 L 13,146 L 14,147 L 15,146 L 16,147 L 16,148 L 17,147 L 18,147 L 19,148 L 18,149 L 19,148 L 20,149 L 20,148 L 21,147 L 22,148 L 22,150 L 21,151 L 22,150 L 23,150 L 24,151 L 25,150 L 26,151 L 27,151 L 28,152 L 27,153 L 27,155 L 27,153 L 28,152 L 29,152 L 30,153 L 29,154 L 33,154 L 34,155 L 33,156 L 31,156 L 31,159 L 30,160 L 31,159 L 32,160 L 33,160 L 34,161 L 34,160 L 35,159 L 36,159 L 37,160 L 36,161 L 39,161 L 40,162 L 41,162 L 42,163 L 40,165 L 41,164 L 42,165 L 42,167 L 43,168 L 42,169 L 43,168 L 44,169 L 44,174 L 43,175 L 44,176 L 44,179 L 43,180 L 43,183 L 43,180 L 44,179 L 44,54 L 45,53 L 45,50 L 46,49 L 46,48 L 49,45 L 50,45 L 51,44 L 135,44 L 136,43 L 138,43 L 139,42 L 140,42 L 141,41 L 142,41 L 148,35 L 148,34 L 150,32 L 150,30 L 151,29 L 151,25 L 152,24 L 152,23 L 151,22 L 151,18 L 150,17 L 150,15 L 148,13 L 148,12 L 143,7 L 142,7 L 141,6 L 140,6 L 139,5 L 138,5 L 137,4 L 134,4 L 133,3 Z" fill="black" /><path d="M 235,2 Z" fill="black" /><path d="M 217,2 Z" fill="black" /><path d="M 232,1 Z" fill="black" /><path d="M 220,1 Z" fill="black" /><path d="M 133,1 L 136,1 L 137,2 L 138,2 L 137,2 L 136,1 Z" fill="black" /><path d="M 47,1 L 131,1 Z" fill="black" /><path d="M 41,1 L 40,2 L 37,2 L 36,3 L 34,3 L 33,4 L 34,3 L 36,3 L 37,2 L 40,2 L 41,1 L 45,1 Z" fill="black" /></svg>